<svg id="Calque_1" data-name="Calque 1" xmlns="http://www.w3.org/2000/svg" viewBox="0 0 1000 1000">
    <g style="fill:#106fbd;">
        <path d="M626.75,485.91l20.82,351.94a35.21,35.21,0,0,1-15.49,31.36L487.37,965.35l-.06,0A35.56,35.56,0,0,1,476,970.12a34.85,34.85,0,0,1-23.51-2.87L136.58,809.9a115.45,115.45,0,0,1-63.75-96.49L52,361.46a35.26,35.26,0,0,1,15.23-31.21l145.05-96.36a35.72,35.72,0,0,1,11.27-4.7,34.87,34.87,0,0,1,23.51,2.87L563,389.42a115.41,115.41,0,0,1,63.75,96.49Z"/>
        <path style="filter: brightness(30%);" d="M613.78,486.67l20.82,352a22.34,22.34,0,0,1-32.26,21.31L286.4,702.57A102.43,102.43,0,0,1,229.83,617L209,265a22.35,22.35,0,0,1,32.26-21.32L557.2,401.05A102.42,102.42,0,0,1,613.78,486.67Z"/>
    </g>
    <g style="fill:#b7292a;">
        <path style="filter: brightness(60%) saturate(120%);" d="M947.07,410.35,889.32,758.14a35.18,35.18,0,0,1-22.06,27.15L704.83,846.94l-.06,0a35.52,35.52,0,0,1-12.06,2.11,34.83,34.83,0,0,1-22.29-8L397.25,617.55a115.43,115.43,0,0,1-40.76-108.22l57.75-347.8A35.25,35.25,0,0,1,436,134.47L598.83,72.68a35.51,35.51,0,0,1,12-2.08,34.83,34.83,0,0,1,22.29,8L906.31,302.12a115.38,115.38,0,0,1,40.76,108.23Z"/>
        <path d="M934.25,408.22,876.5,756a22.34,22.34,0,0,1-36.18,13.63L567.15,546.13a102.42,102.42,0,0,1-36.17-96L588.73,102.3a22.34,22.34,0,0,1,36.18-13.63L898.08,312.18A102.42,102.42,0,0,1,934.25,408.22Z"/>
    </g>
    <ellipse style="fill:#fff;" class="cls-4" cx="732.61" cy="429.16" rx="62.83" ry="110.73" transform="translate(-87.86 210.7) rotate(-15.45)"/>
</svg>