<svg xmlns="http://www.w3.org/2000/svg" xmlns:cc="http://creativecommons.org/ns#" xmlns:dc="http://purl.org/dc/elements/1.1/" xmlns:rdf="http://www.w3.org/1999/02/22-rdf-syntax-ns#" version="1.1" viewBox="0 0 717.2 717.2" xml:space="preserve">
<style type="text/css">
	.st0{fill:url(#SVGID_1_);}
</style>
<linearGradient id="SVGID_1_" x1="61.604" x2="647.04" y1="373.65" y2="373.06" gradientTransform="matrix(1 .0010142 -.0010142 1 4.6349 -15.227)" gradientUnits="userSpaceOnUse">
	<stop style="stop-color:#DC2DE2" offset=".010541"/>
	<stop style="stop-color:#972DE2" offset=".3269"/>
	<stop style="stop-color:#8F28E2" offset=".4648"/>
	<stop style="stop-color:#7A1BE1" offset=".6756"/>
	<stop style="stop-color:#5706E0" offset=".9318"/>
	<stop style="stop-color:#4D00E0" offset="1"/>
</linearGradient>
<path class="st0" d="m565.85 141.83c-19.8 11.3-37 22.3-55.2 31.1-14.1 6.8-28.8 4.5-42.4-3.6-29.4-17.4-58.9-34.5-88.2-52-12.9-7.7-25.7-9.5-39-1.9-50.3 28.9-100.6 58-150.8 87.1-8.8 5.1-9.2 10 0 15.3 52 30.2 103.9 60.4 155.7 91 10.9 6.4 20.4 4.2 30.2-1.5 68.7-39.9 137.4-79.8 206.1-119.7 5.3-3.1 10.5-6.2 16-9 19.3-9.8 25.3-10.1 36.2 8.3 8.5 14.2 15.2 31.8 15.7 48.1 1.8 64.6 1.1 129.3 1 193.9 0 22.4-0.1 44.8-1.5 67.1-1 20.4-12.2 38.9-29.8 49.2-55.9 33.5-112.6 65.7-169 98.3-2.8 0.9-5.8 1.6-8.7 2 1-24.6 0.4-47.9 4.3-70.5 1.6-9.2 12-18.8 20.8-24.3 31.5-19.8 63.8-38.3 96.3-56.3 11.3-6.3 15-13.9 14.9-26.8-0.7-58-0.2-116-0.2-174 0-12.7-5.1-16.3-16.2-10-52.1 29.9-104.2 59.9-155.7 90.9-5.5 3.3-9.9 13.4-9.9 20.3-0.6 65.7 0.2 131.4 0.4 197.2 0.1 22.9-0.1 45.8-0.4 68.7-0.1 11.5-4.9 19.4-17 21.9-20.7 4.3-40.3 3-59-8-67.7-39.5-134.6-79.5-202.9-117.2-35.7-19.7-52.4-47.2-51.7-87.8 0.9-58 0.4-116.1 0.5-174.2-0.2-1.9 0.5-3.8 1.4-10.2 25.3 21 61.8 24.5 70.5 60.3 3.8 15.4 1.4 32.4 1.6 48.7 0.3 26 0 52 1.3 77.9 0.3 6.1 4 14.8 8.8 17.7 52.9 31.5 106.6 62.1 159.9 92.9 3.5 1.3 7.1 2.3 10.8 2.9 0.6-17.9 1.4-34.4 1.5-50.9 0.1-47.4 0.4-94.7-0.7-142.1-1-7.8-5.3-14.8-11.8-19.1-61.5-36.7-123.7-72.6-185.8-108.7-16.2-9.5-33-18.3-48.5-28.9-5-4.2-7.6-10.5-7.2-17 3.7-21.4 16.8-40 35.6-50.8 71.6-41.3 143-82.6 214.4-123.9 27.1-15.7 54.2-16 81.3-0.4 52.5 30.4 104.9 60.9 157.3 91.4 2.1 1.2 4.1 2.9 9.1 6.6z" style="fill:url(#SVGID_1_)"/>
</svg>